<?xml version="1.0" standalone="no"?>
<!DOCTYPE svg PUBLIC "-//W3C//DTD SVG 20010904//EN"
 "http://www.w3.org/TR/2001/REC-SVG-20010904/DTD/svg10.dtd">
<svg version="1.0" xmlns="http://www.w3.org/2000/svg"
 width="260.000000pt" height="260.000000pt" viewBox="0 0 260.000000 260.000000"
 preserveAspectRatio="xMidYMid meet">
<metadata>
Created by potrace 1.14, written by Peter Selinger 2001-2017
</metadata>
<g transform="translate(0.000000,260.000000) scale(0.100000,-0.100000)"
fill="#000000" stroke="none">
<path d="M0 1300 l0 -1300 1300 0 1300 0 0 1300 0 1300 -1300 0 -1300 0 0
-1300z m794 471 c125 -28 267 -141 319 -254 15 -32 27 -64 27 -72 0 -7 5 -17
10 -20 13 -8 13 -242 0 -250 -5 -3 -10 -13 -10 -20 0 -38 -58 -134 -115 -190
-62 -61 -80 -74 -148 -107 -74 -36 -234 -59 -285 -40 -15 5 -55 18 -89 28 -35
11 -63 22 -63 26 0 5 -7 8 -15 8 -8 0 -15 4 -15 9 0 5 -8 12 -18 15 -36 12
-142 128 -142 155 0 6 -3 11 -7 11 -8 0 -28 48 -51 121 -15 46 -15 172 0 218
23 73 43 121 51 121 4 0 7 5 7 11 0 27 106 143 142 155 10 3 18 10 18 15 0 5
7 9 15 9 8 0 15 3 15 8 0 4 28 15 63 26 34 10 71 22 82 27 25 11 144 5 209
-10z m1221 -1 c24 0 47 -4 50 -10 3 -5 13 -10 21 -10 20 0 94 -33 94 -42 0 -5
5 -8 10 -8 6 0 23 -11 38 -25 15 -14 32 -25 39 -25 7 0 13 -6 13 -13 0 -7 15
-28 33 -47 28 -31 41 -54 78 -145 13 -34 21 -87 21 -145 0 -58 -8 -111 -21
-145 -37 -91 -50 -114 -78 -145 -18 -19 -33 -40 -33 -47 0 -7 -6 -13 -13 -13
-7 0 -24 -11 -39 -25 -15 -14 -32 -25 -38 -25 -5 0 -10 -3 -10 -8 0 -22 -196
-77 -255 -72 -5 1 -38 3 -72 6 -35 3 -63 10 -63 15 0 5 -9 9 -20 9 -18 0 -88
28 -100 40 -3 3 -23 18 -44 34 -49 37 -95 87 -96 104 0 6 -3 12 -8 12 -4 0
-16 17 -26 38 -10 20 -22 45 -27 54 -5 10 -9 27 -9 37 0 11 -4 23 -10 26 -6 3
-10 50 -10 105 0 55 4 102 10 105 6 3 10 15 10 26 0 10 4 27 9 37 4 9 16 34
26 55 10 20 22 37 27 37 4 0 8 6 8 13 1 16 47 66 96 103 21 16 41 31 44 34 12
12 82 40 100 40 11 0 20 5 20 10 0 6 24 10 53 10 28 0 58 4 66 9 9 6 24 6 38
0 14 -5 44 -9 68 -9z"/>
</g>
</svg>
