<svg width="55" height="94" viewBox="0 0 55 94" fill="none" xmlns="http://www.w3.org/2000/svg">
<path d="M0 15C0 6.71573 6.71573 0 15 0H40C48.2843 0 55 6.71573 55 15V79C55 87.2843 48.2843 94 40 94H15C6.71573 94 0 87.2843 0 79V15Z" fill="#D9D9D9"  fill-opacity="0"/>
<path fill-rule="evenodd" clip-rule="evenodd" d="M45.8737 40.7141C45.8723 40.7158 45.8723 40.7183 45.8737 40.72C47.2353 42.3723 48 44.6112 48 46.9455C48 49.2812 47.2344 51.5214 45.8713 53.174L18.4255 86.4197C17.06 88.0724 15.2083 89.0006 13.2777 89C11.3471 88.9994 9.49569 88.0702 8.13087 86.4168C6.76604 84.7634 5.99954 82.5211 5.99999 80.1833C6.00045 77.8456 6.76782 75.6038 8.13329 73.9511L30.4354 46.9455L8.1333 19.9399C6.80675 18.2784 6.07221 16.0524 6.08789 13.7414C6.10357 11.4305 6.86821 9.21938 8.21712 7.58445C9.56603 5.94952 11.3913 5.02153 13.2998 5.00037C15.2082 4.97921 17.0472 5.86656 18.4206 7.4713L45.8737 40.7083C45.8751 40.71 45.8751 40.7124 45.8737 40.7141Z" fill="#737171"/>
</svg>
