<svg width="42" height="84" viewBox="0 0 42 84" fill="none" xmlns="http://www.w3.org/2000/svg">
<path fill-rule="evenodd" clip-rule="evenodd" d="M2.12871 35.7171C0.765631 37.3697 3.15214e-06 39.6098 3.35633e-06 41.9455C3.56052e-06 44.2812 0.765632 46.5214 2.12871 48.174L29.5745 81.4197C30.94 83.0724 32.7917 84.0006 34.7223 84C36.6529 83.9994 38.5043 83.0702 39.8691 81.4168C41.234 79.7634 42.0005 77.5211 42 75.1833C41.9996 72.8456 41.2322 70.6038 39.8667 68.9511L17.5646 41.9455L39.8667 14.9399C41.1933 13.2784 41.9278 11.0524 41.9121 8.74143C41.8964 6.43045 41.1318 4.21938 39.7829 2.58445C38.434 0.949517 36.6087 0.0215344 34.7002 0.0003707C32.7918 -0.020793 30.9528 0.866557 29.5794 2.4713L2.12385 35.7112L2.12871 35.7171Z" fill="#737171"/>
</svg>
