<svg width="36" height="72" viewBox="0 0 36 72" fill="none" xmlns="http://www.w3.org/2000/svg">
<path fill-rule="evenodd" clip-rule="evenodd" d="M34.1754 30.6146C35.3437 32.0311 36 33.9513 36 35.9533C36 37.9553 35.3437 39.8755 34.1754 41.292L10.6504 69.7883C9.48001 71.2049 7.89282 72.0005 6.23801 72C4.5832 71.9995 2.99632 71.2031 1.82647 69.7858C0.656615 68.3686 -0.000384027 66.4467 5.80731e-06 64.4429C0.000395642 62.4391 0.658141 60.5175 1.82855 59.1009L20.9447 35.9533L1.82854 12.8057C0.6915 11.3815 0.0618964 9.47349 0.0753348 7.49265C0.0887731 5.51182 0.744177 3.61661 1.90039 2.21524C3.0566 0.813871 4.6211 0.0184572 6.25693 0.000316649C7.89276 -0.0178239 9.46904 0.742762 10.6462 2.11826L34.1796 30.6096L34.1754 30.6146Z" fill="#737171"/>
</svg>
