<svg width="55" height="94" viewBox="0 0 55 94" fill="none" xmlns="http://www.w3.org/2000/svg">
<path d="M55 15C55 6.71573 48.2843 0 40 0H15C6.71573 0 0 6.71573 0 15V79C0 87.2843 6.71573 94 15 94H40C48.2843 94 55 87.2843 55 79V15Z" fill="#737171"/>
<path fill-rule="evenodd" clip-rule="evenodd" d="M46.8713 41.7171C48.2344 43.3697 49 45.6098 49 47.9455C49 50.2812 48.2344 52.5214 46.8713 54.174L19.4255 87.4197C18.06 89.0724 16.2083 90.0006 14.2777 90C12.3471 89.9994 10.4957 89.0702 9.13087 87.4168C7.76604 85.7634 6.99954 83.5211 6.99999 81.1833C7.00045 78.8456 7.76782 76.6038 9.13329 74.9511L31.4354 47.9455L9.1333 20.9399C7.80675 19.2784 7.07221 17.0524 7.08789 14.7414C7.10357 12.4305 7.86821 10.2194 9.21712 8.58445C10.566 6.94952 12.3913 6.02153 14.2998 6.00037C16.2082 5.97921 18.0472 6.86656 19.4206 8.4713L46.8762 41.7112L46.8713 41.7171Z" fill="#D9D9D9"/>
<path d="M18.8466 8.95409L45.903 41.7107L45.8984 41.7162L46.2927 42.1943C47.5347 43.7001 48.25 45.7672 48.25 47.9455C48.25 50.1238 47.5348 52.1907 46.2929 53.6965C46.2928 53.6966 46.2928 53.6967 46.2927 53.6967L18.8473 86.942C17.6065 88.4437 15.9582 89.2505 14.2779 89.25C12.5975 89.2495 10.9495 88.4418 9.70927 86.9394C8.46568 85.4328 7.74957 83.3638 7.74999 81.1835C7.75042 79.0031 8.46734 76.9346 9.71147 75.4288L9.71158 75.4287L32.0137 48.4231L32.4081 47.9455L32.0137 47.4679L9.71562 20.4672C8.50818 18.9524 7.82327 16.8994 7.83787 14.7465C7.85249 12.5913 8.56661 10.5514 9.79563 9.06176C11.0214 7.57603 12.6467 6.76875 14.3081 6.75032C15.9672 6.73193 17.6007 7.50087 18.8466 8.95409ZM47.4497 54.6514L47.4499 54.6512C48.934 52.8518 49.75 50.4385 49.75 47.9455C49.75 45.6745 49.0729 43.4696 47.8303 41.7347L47.8493 41.7117L47.4544 41.2336L19.9989 7.99368L19.999 7.9936L19.9904 7.98363C18.49 6.23053 16.4474 5.22651 14.2914 5.25042C12.1359 5.27432 10.1106 6.323 8.6386 8.10714C7.1698 9.88739 6.35464 12.2696 6.33791 14.7363C6.32117 17.2031 7.10389 19.6001 8.54718 21.4079L8.5471 21.4079L8.555 21.4175L30.4628 47.9455L8.55511 74.4734C8.55507 74.4734 8.55503 74.4735 8.555 74.4735C7.06826 76.273 6.25048 78.6881 6.24999 81.1832C6.24951 83.6784 7.06639 86.0939 8.55246 87.8942C10.0419 89.6987 12.0966 90.7494 14.2774 90.75C16.4584 90.7506 18.5135 89.7011 20.0037 87.8974L20.0038 87.8972L47.4497 54.6514ZM15 0.75H40C47.8701 0.75 54.25 7.12994 54.25 15V79C54.25 86.8701 47.8701 93.25 40 93.25H15C7.12994 93.25 0.75 86.8701 0.75 79V15C0.75 7.12994 7.12994 0.75 15 0.75Z" stroke="#737171" stroke-width="1.5"/>
</svg>
