<svg width="55" height="94" viewBox="0 0 55 94" fill="none" xmlns="http://www.w3.org/2000/svg">
<path d="M0 15C0 6.71573 6.71573 0 15 0H40C48.2843 0 55 6.71573 55 15V79C55 87.2843 48.2843 94 40 94H15C6.71573 94 0 87.2843 0 79V15Z" fill="#737171"/>
<path fill-rule="evenodd" clip-rule="evenodd" d="M8.12871 41.7171C6.76563 43.3697 6 45.6098 6 47.9455C6 50.2812 6.76563 52.5214 8.12871 54.174L35.5745 87.4197C36.94 89.0724 38.7917 90.0006 40.7223 90C42.6529 89.9994 44.5043 89.0702 45.8691 87.4168C47.234 85.7634 48.0005 83.5211 48 81.1833C47.9996 78.8456 47.2322 76.6038 45.8667 74.9511L23.5646 47.9455L45.8667 20.9399C47.1933 19.2784 47.9278 17.0524 47.9121 14.7414C47.8964 12.4305 47.1318 10.2194 45.7829 8.58445C44.434 6.94952 42.6087 6.02153 40.7002 6.00037C38.7918 5.97921 36.9528 6.86656 35.5794 8.4713L8.12385 41.7112L8.12871 41.7171Z" fill="#D9D9D9"/>
<path d="M8.70729 42.1943L9.10158 41.7163L9.09701 41.7107L36.1533 8.95416C37.3992 7.50089 39.0328 6.73193 40.6919 6.75032C42.3533 6.76875 43.9786 7.57603 45.2044 9.06176C46.4334 10.5514 47.1475 12.5913 47.1621 14.7465C47.1767 16.8994 46.4918 18.9524 45.2844 20.4672L22.9863 47.4679L22.5919 47.9455L22.9863 48.4231L45.2884 75.4287L45.2885 75.4288C46.5327 76.9346 47.2496 79.0031 47.25 81.1835C47.2504 83.3638 46.5343 85.4328 45.2907 86.9394C44.0505 88.4418 42.4025 89.2495 40.7221 89.25C39.0418 89.2505 37.3935 88.4437 36.1527 86.942L8.70729 53.6967C7.46529 52.1909 6.75 50.1239 6.75 47.9455C6.75 45.7672 7.46529 43.7001 8.70729 42.1943ZM7.55012 54.6512L7.55033 54.6514L34.9962 87.8972L34.9963 87.8974C36.4865 89.7011 38.5416 90.7506 40.7225 90.75C42.9034 90.7494 44.9581 89.6987 46.4475 87.8942C47.9336 86.0939 48.7505 83.6784 48.75 81.1832C48.7495 78.6881 47.9317 76.273 46.445 74.4735C46.445 74.4735 46.4449 74.4734 46.4449 74.4734L24.5372 47.9455L46.445 21.4175L46.4451 21.4176L46.4528 21.4079C47.8961 19.6001 48.6788 17.2031 48.6621 14.7363C48.6454 12.2696 47.8302 9.88739 46.3614 8.10714C44.8894 6.323 42.8641 5.27432 40.7086 5.25042C38.5526 5.22651 36.51 6.23053 35.0096 7.98363L35.0095 7.98356L35.0011 7.99368L7.5456 41.2336L7.15069 41.7117L7.16971 41.7347C5.92715 43.4696 5.25 45.6745 5.25 47.9455C5.25 50.4385 6.06597 52.8518 7.55012 54.6512ZM15 0.75H40C47.8701 0.75 54.25 7.12994 54.25 15V79C54.25 86.8701 47.8701 93.25 40 93.25H15C7.12994 93.25 0.75 86.8701 0.75 79V15C0.75 7.12994 7.12994 0.75 15 0.75Z" stroke="#737171" stroke-width="1.5"/>
</svg>

