<svg width="83" height="94" viewBox="0 0 83 94" fill="none" xmlns="http://www.w3.org/2000/svg">
<rect width="83" height="94" rx="15" transform="matrix(-1 0 0 1 83 0)" fill="#737171"/>
<path d="M19.0379 8.79301L46.2274 41.7108L46.2227 41.7165L46.4856 42.0351C47.7679 43.5898 48.5 45.7146 48.5 47.9454C48.5 50.1761 47.768 52.3008 46.4857 53.8555C46.4857 53.8556 46.4856 53.8556 46.4856 53.8557L19.04 87.1011C17.7577 88.6532 16.0416 89.5004 14.2778 89.4999C12.514 89.4994 10.7982 88.6512 9.51647 87.0984C8.23247 85.5429 7.49956 83.4161 7.49999 81.1833C7.50043 78.9505 8.23416 76.8242 9.51875 75.2695L9.51882 75.2694L31.821 48.2638L32.0839 47.9454L31.821 47.627L9.5215 20.6247C8.27437 19.0609 7.57291 16.9503 7.58788 14.7447C7.60285 12.5376 8.33381 10.4406 9.60279 8.90253C10.8696 7.36707 12.5615 6.51956 14.3053 6.50022C16.0475 6.4809 17.7495 7.28928 19.0379 8.79301Z" fill="#D9D9D9" stroke="#737171"/>
<path d="M47.0379 8.79313L74.2274 41.7109L74.2227 41.7166L74.4856 42.0352C75.7679 43.59 76.5 45.7147 76.5 47.9455C76.5 50.1762 75.768 52.3009 74.4857 53.8556C74.4857 53.8557 74.4856 53.8558 74.4856 53.8558L47.04 87.1013C45.7577 88.6533 44.0416 89.5005 42.2778 89.5C40.514 89.4995 38.7982 88.6513 37.5165 87.0985C36.2325 85.543 35.4996 83.4163 35.5 81.1834C35.5004 78.9506 36.2342 76.8243 37.5187 75.2696L37.5188 75.2695L59.821 48.2639L60.0839 47.9455L59.821 47.6271L37.5215 20.6248C36.2744 19.061 35.5729 16.9504 35.5879 14.7448C35.6029 12.5377 36.3338 10.4407 37.6028 8.90265C38.8696 7.36719 40.5615 6.51968 42.3053 6.50034C44.0475 6.48102 45.7495 7.2894 47.0379 8.79313Z" fill="#D9D9D9" stroke="#737171"/>
</svg>
