<svg width="83" height="94" viewBox="0 0 83 94" fill="none" xmlns="http://www.w3.org/2000/svg">
<path d="M0 15C0 6.71573 6.71573 0 15 0H68C76.2843 0 83 6.71573 83 15V79C83 87.2843 76.2843 94 68 94H15C6.71573 94 0 87.2843 0 79V15Z" fill="#737171"/>
<path fill-rule="evenodd" clip-rule="evenodd" d="M36.1287 41.7171C34.7656 43.3697 34 45.6098 34 47.9455C34 50.2812 34.7656 52.5214 36.1287 54.174L63.5745 87.4197C64.94 89.0724 66.7917 90.0006 68.7223 90C70.6529 89.9994 72.5043 89.0702 73.8691 87.4168C75.234 85.7634 76.0005 83.5211 76 81.1833C75.9996 78.8456 75.2322 76.6038 73.8667 74.9511L51.5646 47.9455L73.8667 20.9399C75.1933 19.2784 75.9278 17.0524 75.9121 14.7414C75.8964 12.4305 75.1318 10.2194 73.7829 8.58445C72.434 6.94952 70.6087 6.02153 68.7002 6.00037C66.7918 5.97921 64.9528 6.86656 63.5794 8.4713L36.1238 41.7112L36.1287 41.7171Z" fill="#D9D9D9"/>
<path fill-rule="evenodd" clip-rule="evenodd" d="M8.12871 41.7171C6.76563 43.3697 6 45.6098 6 47.9455C6 50.2812 6.76563 52.5214 8.12871 54.174L35.5745 87.4197C36.94 89.0724 38.7917 90.0006 40.7223 90C42.6529 89.9994 44.5043 89.0702 45.8691 87.4168C47.234 85.7634 48.0005 83.5211 48 81.1833C47.9996 78.8456 47.2322 76.6038 45.8667 74.9511L23.5646 47.9455L45.8667 20.9399C47.1933 19.2784 47.9278 17.0524 47.9121 14.7414C47.8964 12.4305 47.1318 10.2194 45.7829 8.58445C44.434 6.94952 42.6087 6.02153 40.7002 6.00037C38.7918 5.97921 36.9528 6.86656 35.5794 8.4713L8.12385 41.7112L8.12871 41.7171Z" fill="#D9D9D9"/>
<path d="M36.5144 42.0352L36.7773 41.7165L36.7726 41.7109L63.9621 8.79309C65.2505 7.28939 66.9525 6.48102 68.6947 6.50034C70.4385 6.51968 72.1304 7.36719 73.3972 8.90265C74.6662 10.4407 75.3971 12.5377 75.4121 14.7448C75.4271 16.9504 74.7257 19.061 73.4786 20.6247C73.4777 20.6258 73.4768 20.6269 73.476 20.628L51.179 47.6271L50.9161 47.9455L51.179 48.2639L73.4812 75.2695L73.4813 75.2696C74.7658 76.8243 75.4996 78.9506 75.5 81.1834C75.5004 83.4163 74.7675 85.543 73.4835 87.0985C72.2018 88.6513 70.486 89.4995 68.7222 89.5C66.9584 89.5005 65.2423 88.6533 63.96 87.1013L36.5144 53.8558C36.5144 53.8558 36.5143 53.8557 36.5143 53.8556C35.232 52.3009 34.5 50.1762 34.5 47.9455C34.5 45.7147 35.2321 43.59 36.5144 42.0352ZM35.743 54.4921L35.7431 54.4923L63.1889 87.7381L63.1891 87.7382C64.6377 89.4915 66.625 90.5006 68.7225 90.5C70.8199 90.4994 72.8068 89.4892 74.2547 87.7351C75.7004 85.9837 76.5005 83.626 76.5 81.1832C76.4995 78.7406 75.6986 76.3833 74.2522 74.6327C74.2522 74.6327 74.2522 74.6327 74.2522 74.6326L52.213 47.9455L74.2522 21.2583L74.2523 21.2584L74.2574 21.2519C75.6618 19.4929 76.4285 17.1529 76.4121 14.738C76.3957 12.3232 75.5974 9.99806 74.1686 8.26624C72.7376 6.53184 70.779 5.52339 68.7058 5.5004C66.6323 5.47741 64.6576 6.44254 63.1995 8.14619L63.1994 8.14614L63.1939 8.15288L35.7383 41.3928L35.4751 41.7116L35.4864 41.7253C34.2048 43.4366 33.5 45.6536 33.5 47.9455C33.5 50.3861 34.2992 52.7417 35.743 54.4921ZM8.51443 42.0352L8.77729 41.7165L8.77262 41.7109L35.9621 8.79309C37.2505 7.28939 38.9525 6.48102 40.6947 6.50034C42.4385 6.51968 44.1304 7.36719 45.3972 8.90265C46.6662 10.4407 47.3971 12.5377 47.4121 14.7448C47.4271 16.9504 46.7256 19.0611 45.4785 20.6248L23.179 47.6271L22.9161 47.9455L23.179 48.2639L45.4812 75.2695L45.4813 75.2696C46.7658 76.8243 47.4996 78.9506 47.5 81.1834C47.5004 83.4163 46.7675 85.543 45.4835 87.0985C44.2018 88.6513 42.486 89.4995 40.7222 89.5C38.9584 89.5005 37.2423 88.6533 35.96 87.1013L8.51443 53.8558C8.51438 53.8558 8.51434 53.8557 8.51429 53.8556C7.23202 52.3009 6.5 50.1762 6.5 47.9455C6.5 45.7147 7.23207 43.59 8.51443 42.0352ZM7.74298 54.4921L7.74312 54.4923L35.1889 87.7381L35.1891 87.7382C36.6377 89.4915 38.625 90.5006 40.7225 90.5C42.8199 90.4994 44.8068 89.4892 46.2547 87.7351C47.7004 85.9837 48.5005 83.626 48.5 81.1832C48.4995 78.7405 47.6985 76.3832 46.2522 74.6326L24.213 47.9455L46.2522 21.2583L46.2523 21.2584L46.2574 21.2519C47.6618 19.4929 48.4285 17.1529 48.4121 14.738C48.3957 12.3232 47.5974 9.99806 46.1686 8.26624C44.7376 6.53184 42.779 5.52339 40.7058 5.5004C38.6323 5.47741 36.6576 6.44254 35.1995 8.14619L35.1994 8.14614L35.1939 8.15288L7.73835 41.3928L7.47508 41.7115L7.48646 41.7253C6.20483 43.4366 5.5 45.6536 5.5 47.9455C5.5 50.3861 6.29919 52.7417 7.74298 54.4921ZM15 0.5H68C76.0081 0.5 82.5 6.99187 82.5 15V79C82.5 87.0081 76.0081 93.5 68 93.5H15C6.99187 93.5 0.5 87.0081 0.5 79V15C0.5 6.99187 6.99187 0.5 15 0.5Z" stroke="#737171"/>
</svg>
