<svg width="83" height="94" viewBox="0 0 83 94" fill="none" xmlns="http://www.w3.org/2000/svg">
<rect width="83" height="94" rx="15" fill="#D9D9D9"  fill-opacity="0"/>
<path fill-rule="evenodd" clip-rule="evenodd" d="M45.8737 40.7141C45.8723 40.7158 45.8723 40.7183 45.8737 40.72C47.2353 42.3723 48 44.6112 48 46.9455C48 49.2812 47.2344 51.5214 45.8713 53.174L18.4255 86.4197C17.06 88.0724 15.2083 89.0006 13.2777 89C11.3471 88.9994 9.49569 88.0702 8.13086 86.4168C6.76604 84.7634 5.99954 82.5211 5.99999 80.1833C6.00045 77.8456 6.76782 75.6038 8.13329 73.9511L30.4354 46.9455L8.1333 19.9399C6.80675 18.2784 6.07221 16.0524 6.08789 13.7414C6.10357 11.4305 6.86821 9.21938 8.21712 7.58445C9.56603 5.94952 11.3913 5.02153 13.2998 5.00037C15.2082 4.97921 17.0472 5.86656 18.4206 7.4713L45.8737 40.7083C45.8751 40.71 45.8751 40.7124 45.8737 40.7141V40.7141Z" fill="#A9A9A9" fill-opacity="0.15"/>
<path fill-rule="evenodd" clip-rule="evenodd" d="M73.8737 40.7141C73.8723 40.7158 73.8723 40.7183 73.8737 40.72C75.2353 42.3723 76 44.6112 76 46.9455C76 49.2812 75.2344 51.5214 73.8713 53.174L46.4255 86.4197C45.06 88.0724 43.2083 89.0006 41.2777 89C39.3471 88.9994 37.4957 88.0702 36.1309 86.4168C34.766 84.7634 33.9995 82.5211 34 80.1833C34.0004 77.8456 34.7678 75.6038 36.1333 73.9511L58.4354 46.9455L36.1333 19.9399C34.8067 18.2784 34.0722 16.0524 34.0879 13.7414C34.1036 11.4305 34.8682 9.21938 36.2171 7.58445C37.566 5.94952 39.3913 5.02153 41.2998 5.00037C43.2082 4.97921 45.0472 5.86656 46.4206 7.4713L73.8737 40.7083C73.8751 40.71 73.8751 40.7124 73.8737 40.7141V40.7141Z" fill="#A9A9A9" fill-opacity="0.15"/>
</svg>
