<svg width="83" height="94" viewBox="0 0 83 94" fill="none" xmlns="http://www.w3.org/2000/svg">
<path d="M83 15C83 6.71573 76.2843 0 68 0H15C6.71573 0 0 6.71573 0 15V79C0 87.2843 6.71573 94 15 94H68C76.2843 94 83 87.2843 83 79V15Z" fill="#D9D9D9"  fill-opacity="0"/>
<path fill-rule="evenodd" clip-rule="evenodd" d="M37.1263 40.7141C37.1277 40.7158 37.1277 40.7183 37.1263 40.72C35.7647 42.3723 35 44.6112 35 46.9455C35 49.2812 35.7656 51.5214 37.1287 53.174L64.5745 86.4197C65.94 88.0724 67.7917 89.0006 69.7223 89C71.6529 88.9994 73.5043 88.0702 74.8691 86.4168C76.234 84.7634 77.0005 82.5211 77 80.1833C76.9996 77.8456 76.2322 75.6038 74.8667 73.9511L52.5646 46.9455L74.8667 19.9399C76.1933 18.2784 76.9278 16.0524 76.9121 13.7414C76.8964 11.4305 76.1318 9.21938 74.7829 7.58445C73.434 5.94952 71.6087 5.02153 69.7002 5.00037C67.7918 4.97921 65.9528 5.86656 64.5794 7.4713L37.1263 40.7083C37.1249 40.71 37.1249 40.7124 37.1263 40.7141Z" fill="#A9A9A9" fill-opacity="0.15"/>
<path fill-rule="evenodd" clip-rule="evenodd" d="M9.12628 40.7141C9.12769 40.7158 9.12769 40.7183 9.12629 40.72C7.76472 42.3723 7 44.6112 7 46.9455C7 49.2812 7.76563 51.5214 9.12871 53.174L36.5745 86.4197C37.94 88.0724 39.7917 89.0006 41.7223 89C43.6529 88.9994 45.5043 88.0702 46.8691 86.4168C48.234 84.7634 49.0005 82.5211 49 80.1833C48.9996 77.8456 48.2322 75.6038 46.8667 73.9511L24.5646 46.9455L46.8667 19.9399C48.1933 18.2784 48.9278 16.0524 48.9121 13.7414C48.8964 11.4305 48.1318 9.21938 46.7829 7.58445C45.434 5.94952 43.6087 5.02153 41.7002 5.00037C39.7918 4.97921 37.9528 5.86656 36.5794 7.4713L9.12628 40.7083C9.12487 40.71 9.12487 40.7124 9.12628 40.7141Z" fill="#A9A9A9"  fill-opacity="0.15"/>
</svg>
